<?xml version="1.0" standalone="no"?><!DOCTYPE svg PUBLIC "-//W3C//DTD SVG 1.1//EN" "http://www.w3.org/Graphics/SVG/1.1/DTD/svg11.dtd"><svg t="1733226732996" class="icon" viewBox="0 0 1024 1024" version="1.1" xmlns="http://www.w3.org/2000/svg" p-id="1947" xmlns:xlink="http://www.w3.org/1999/xlink" width="200" height="200"><path d="M537.3828125 481.37890625v-0.88769531c-0.18457031 0.29882813-0.43945313 0.59765625-0.59765625 0.88769531h0.59765625zM694.76855469 462.01660156v30.57714844c5.84472656-0.96679688 14.73046875-0.97558594 15.09082031-2.7421875 1.56445313-7.57617188 1.73144531-15.93457031-0.06152344-23.42285156-0.55371094-2.30273438-8.91210938-2.75097656-15.02929687-4.41210938z" fill="#3F3F3F" p-id="1948"></path><path d="M512 118.6015625C295.0859375 118.6015625 118.6015625 295.0859375 118.6015625 512S295.0859375 905.3984375 512 905.3984375 905.3984375 728.9140625 905.3984375 512 728.9140625 118.6015625 512 118.6015625z m251.04199219 308.54882813c7.734375-7.32128906 20.94433594-3.60351563 26.73632812 5.71289062 6.02050781 9.67675781 2.91796875 23.15917969-7.77832031 27.0703125-7.20703125 2.63671875-15.80273438 3.04101563-23.45800781 2.0390625-2.76855469-0.36035156-4.62304688-7.734375-7.875-13.71972656 4.26269531-7.56738281 6.85546875-15.88183594 12.375-21.10253907z m-337.20996094 51.33691406c9.28125-20.93554688 19.6875-41.38769531 29.8828125-61.90136719 1.01074219-2.03027344 3.78808594-4.41210938 5.82714844-4.5 10.8984375-0.44824219 21.83203125-0.2109375 34.875-0.2109375-9.140625 18.86132813-17.30566406 35.70117188-24.57421875 50.6953125 13.93945313-0.74707031 27.48339844-1.4765625 44.44628906-2.390625-11.75097656 23.82714844-22.21875 45.03515625-33.81152344 68.51953125 9.31640625 0.5625 15.31054688 0.92285156 23.66894532 1.42382813-5.46679688 10.74902344-9.50097656 20.92675781-15.51269532 29.75976562-4.71972656 6.93457031-48.12011719 3.12890625-51.70605468-4.38574219-1.99511719-4.17480469-1.62597656-10.34472656-0.29882813-15.03808593 1.95996094-6.89941406 5.66894531-13.32421875 8.75390625-19.88964844 2.90039063-6.15234375 5.96777344-12.234375 10.01953125-20.50488281-7.18945313 0-12.76171875 0.4921875-18.2109375-0.09667969-13.19238281-1.42382813-18.69433594-9.45703125-13.359375-21.48046875zM231.40917969 555.2421875c-1.88964844-4.81640625 1.87207031-11.68066406 2.43457031-17.66601563 2.109375-22.44726563 4.2890625-44.89453125 5.73925781-67.38574218 0.4921875-7.69042969 3.66503906-9.7734375 10.69628907-9.47460938 9.45703125 0.39550781 18.94921875 0.09667969 31.32421875 0.09667969-7.51464844 46.16894531 1.04589844 93.3046875-29.97070313 134.85058594-7.59375-14.765625-15.02050781-27.15820313-20.22363281-40.42089844z m111.08496094 21.95507813c-0.10546875 24.24023438-15.48632813 37.59960938-38.30273438 34.06640624-15.14355469-2.34667969-24.81152344-14.95898438-23.68652344-32.21191406 6.96972656-0.34277344 14.09765625-0.703125 22.91308594-1.14257812V412.4375h38.32910156c0.31640625 3.71777344 0.79101563 6.6796875 0.79101563 9.65039063 0.04394531 51.70605469 0.18457031 103.40332031-0.04394531 155.10937499z m51.06445312 18.10546874c-13.79003906-17.58691406-19.50292969-35.71875-21.70898437-54.69433593-2.72460938-23.49316406-3.63867188-47.18847656-5.73046875-70.76074219-0.5625-6.33691406 0.87011719-9.29003906 7.72558593-9.07910156 37.66113281 1.125 28.46777344-6.58300781 32.73925782 28.93359375 2.40820313 20.03027344 4.43847656 40.10449219 6.53027343 60.16992187 0.22851563 2.1796875 0.38671875 4.73730469-0.50097656 6.609375-5.84472656 12.35742188-11.99707031 24.55664063-19.0546875 38.82128907z m75.08496094 16.19824219c-18.140625 0.14941406-36.29003906 0.10546875-54.43066406 0.10546875-0.40429688-1.43261719-0.81738281-2.87402344-1.22167969-4.30664062 5.56347656-10.85449219 10.95996094-21.80566406 16.83984375-32.49316407 1.04589844-1.8984375 4.09570313-3.95507813 6.12597656-3.8671875 17.48144531 0.80859375 34.9453125 2.10058594 54.48339844 3.38378907-6.2578125 12.12011719-12.08496094 23.53710938-18.10546875 34.85742187-0.61523438 1.13378906-2.42578125 2.30273438-3.69140625 2.3203125z m151.75195312-29.17089843c-0.87011719 35.90332031 5.50195313 29.12695313-28.08984375 29.62792968-29.47851563 0.43945313-58.97460938 0.12304688-88.46191406 0.06152344-4.48242188-0.00878906-8.95605469-0.41308594-15.63574219-0.74707031 6.23144531-12.4453125 11.25878906-23.44042969 17.296875-33.84667969 1.43261719-2.47851563 6.17871094-4.0078125 9.51855469-4.20996094 9.08789063-0.57128906 18.22851563-0.19335938 28.15136719-0.19335937V464.88183594c-7.86621094-1.6875-21.03222656-1.90722656-21.82324219-5.15039063-2.69824219-11.04785156-1.02832031-23.16796875-1.02832031-35.9296875 27.48339844 0 53.85058594-0.16699219 80.21777344 0.29882813 2.31152344 0.04394531 4.78125 4.10449219 6.69726562 6.65332031 0.73828125 0.984375 0.18457031 2.97070313 0.15820313 4.50878906-0.10546875 8.03320313 2.54882813 17.93847656-1.20410157 23.52832032-3.17285156 4.72851563-13.79003906 4.46484375-22.0078125 6.65332031v107.578125c9.47460938 0 18.20214844 0.30761719 26.90332032-0.09667969 7.03125-0.34277344 9.47460938 2.55761719 9.30761718 9.40429687z m132.22265625 29.30273437c-21.19042969-0.6328125-33.93457031-12.26074219-34.56738281-32.99414063h35.21777344c0-13.921875 0.72070313-26.47265625-0.4921875-38.82128906-0.31640625-3.22558594-6.5390625-8.13867188-10.28320313-8.3671875-15.56542969-0.94921875-31.21875-0.39550781-48.33984375-0.39550781 0 22.71972656 0.00878906 44.41992188 0 66.12890625-0.00878906 14.8359375-0.02636719 15.01171875-15.22265625 14.87988281-28.30078125-0.24609375-23.63378906 3.20800781-23.98535156-23.44042968-0.24609375-18.71191406-0.04394531-37.43261719-0.04394531-57.77050782-10.22167969 0-19.29199219-0.26367188-28.3359375 0.08789063-6.51269531 0.25488281-8.44628906-2.49609375-8.81542969-8.77148438-1.77539063-30.09375-1.93359375-30.07617187 27.45703125-30.45410156 2.64550781-0.03515625 5.29101563-0.31640625 9.20214844-0.55371094v-25.62890625c-1.08105469-0.81738281-1.63476563-1.59082031-2.26757813-1.66113281-21.55078125-2.6015625-21.55078125-2.59277344-21.56835937-25.00488281v-14.68652344h22.91308594c0.94921875-4.23632813 1.66992188-7.47070313 2.6015625-11.62792969h36.81738281c0.72070313 3.28710938 1.48535156 6.8203125 2.37304687 10.87207032 17.92089844-0.10546875 37.14257813 1.15136719 45.73828125 18.09667968 7.25097656 14.29980469 8.12988281 31.82519531 12.25195313 49.77246094-1.13378906-0.36914063 0.61523438 0.43066406 2.45214844 0.76464844 28.265625 5.15039063 37.20410156 15.71484375 37.23925781 44.18261718 0.01757813 14.56347656 0.51855469 29.15332031-0.20214844 43.68164063-1.04589844 20.29394531-16.85742188 32.40527344-40.13964844 31.7109375z" fill="#2c2c2c" p-id="1949"></path></svg>